<svg width="24" height="24" viewBox="0 0 24 24" fill="none" xmlns="http://www.w3.org/2000/svg">
<path d="M20.5705 14.86L21.2905 14.14C21.6805 13.75 21.6805 13.12 21.2905 12.73L21.2705 12.71C20.8805 12.32 20.2505 12.32 19.8605 12.71L17.0005 15.57L8.43047 6.99998L11.2905 4.13998C11.6805 3.74998 11.6805 3.11998 11.2905 2.72998L11.2705 2.70998C10.8805 2.31998 10.2505 2.31998 9.86047 2.70998L9.14047 3.42998L8.42047 2.70998C8.03047 2.31998 7.39047 2.31998 7.00047 2.70998L5.57047 4.13998L4.85047 3.41998C4.46047 3.02998 3.81047 3.02998 3.42047 3.41998C3.03047 3.80998 3.03047 4.45998 3.42047 4.84998L4.14047 5.56998L2.71047 6.99998C2.32047 7.38998 2.32047 8.01998 2.71047 8.40998L3.43047 9.12998L2.71047 9.85998C2.32047 10.25 2.32047 10.88 2.71047 11.27L2.73047 11.29C3.12047 11.68 3.75047 11.68 4.14047 11.29L7.00047 8.42998L15.5705 17L12.7105 19.86C12.3205 20.25 12.3205 20.88 12.7105 21.27L12.7305 21.29C13.1205 21.68 13.7505 21.68 14.1405 21.29L14.8605 20.57L15.5805 21.29C15.9705 21.68 16.6005 21.68 16.9905 21.29L18.4205 19.86L19.1405 20.58C19.5305 20.97 20.1805 20.97 20.5705 20.58C20.9605 20.19 20.9605 19.54 20.5705 19.15L19.8505 18.43L21.2905 17C21.6805 16.61 21.6805 15.98 21.2905 15.59L20.5705 14.86Z" fill="#1A1A1A"/>
</svg>
