<svg width="20" height="20" viewBox="0 0 20 20" fill="none" xmlns="http://www.w3.org/2000/svg">
<path d="M11.8025 6.71295H8.19727V13.1783H11.8025V6.71295Z" fill="#FF5F00"/>
<path d="M8.42609 9.94565C8.42609 8.63203 9.04412 7.4669 9.99407 6.71299C9.29591 6.1647 8.41464 5.83344 7.45325 5.83344C5.17567 5.83344 3.33301 7.67251 3.33301 9.94565C3.33301 12.2188 5.17567 14.0579 7.45325 14.0579C8.41464 14.0579 9.29591 13.7266 9.99407 13.1783C9.04412 12.4358 8.42609 11.2593 8.42609 9.94565Z" fill="#EB001B"/>
<path d="M16.6669 9.94553C16.6669 12.2187 14.8243 14.0577 12.5467 14.0577C11.5853 14.0577 10.704 13.7265 10.0059 13.1782C10.9672 12.4243 11.5738 11.2592 11.5738 9.94553C11.5738 8.63191 10.9558 7.46678 10.0059 6.71287C10.704 6.16458 11.5853 5.83331 12.5467 5.83331C14.8243 5.83331 16.6669 7.68381 16.6669 9.94553Z" fill="#F79E1B"/>
</svg>
