<svg width="24" height="24" viewBox="0 0 24 24" fill="none" xmlns="http://www.w3.org/2000/svg">
<g clip-path="url(#clip0_5360_33416)">
<path d="M22.3197 8.98561C22.3197 9.20933 22.2457 9.43454 22.0936 9.62278L20.4823 11.6161C20.2785 11.8683 19.9786 11.9994 19.6758 11.9994C19.4497 11.9994 19.222 11.9262 19.0317 11.7756L17.1597 10.2955V18.7275C17.1597 19.585 16.4666 20.28 15.6117 20.28H8.3877C7.53307 20.28 6.8397 19.5847 6.8397 18.7275V10.2955L4.94017 11.7769C4.77731 11.9257 4.54962 11.9709 4.32355 11.9709C4.02079 11.9709 3.7208 11.8397 3.51698 11.5877L1.90583 9.62278C1.75361 9.43519 1.67969 9.20878 1.67969 8.98561C1.67969 8.68604 1.81227 8.38919 2.06701 8.18737L6.42076 4.73952C6.83325 4.41512 7.34602 4.23755 7.84267 4.23755H8.9553C9.20362 5.70466 10.4678 6.82505 11.9997 6.82505C13.5316 6.82505 14.7967 5.70466 15.0438 4.23755H16.1274C16.6547 4.23755 17.1665 4.41512 17.5783 4.74114L21.9321 8.18898C22.1875 8.39049 22.3197 8.68805 22.3197 8.98561Z" fill="#1A1A1A"/>
</g>
<defs>
<clipPath id="clip0_5360_33416">
<rect width="20.64" height="16.56" fill="white" transform="translate(1.67969 3.71997)"/>
</clipPath>
</defs>
</svg>
