<svg width="24" height="24" viewBox="0 0 24 24" fill="none" xmlns="http://www.w3.org/2000/svg">
<path d="M21.9731 13.4954C22.0397 12.3813 21.1018 11.067 18.2688 10.7155C17.3522 10.6017 16.4618 10.3269 15.6593 9.99401C14.7506 10.8118 15.0526 11.6298 15.0663 11.6652C15.1508 11.8685 15.0536 12.0998 14.8502 12.1843C14.8007 12.2049 14.7493 12.2146 14.6987 12.2146C14.5416 12.2146 14.392 12.1208 14.328 11.967C14.3062 11.9144 13.8512 10.7735 14.8817 9.64249C14.4443 9.42847 14.0452 9.20611 13.6974 8.99693C12.477 9.89282 12.8538 10.8504 12.858 10.8606C12.9426 11.064 12.8462 11.2974 12.6429 11.3819C12.5928 11.4028 12.5409 11.4126 12.4899 11.4126C12.3337 11.4126 12.1853 11.3201 12.1215 11.1668C11.9052 10.6464 11.8645 9.51312 12.9871 8.54438C12.5293 8.23556 12.2602 8.01872 12.2508 8.01107C11.2956 7.24565 10.8661 7 10.4832 7C10.017 7 9.79657 7.36221 9.58335 7.71251C9.36364 8.07349 9.06279 8.56783 8.37352 9.04707C7.86849 9.39811 7.34236 9.57618 6.80968 9.57624C6.80952 9.57624 6.80957 9.57624 6.80941 9.57624C5.46597 9.57624 4.34074 8.47632 3.78967 7.82071C3.7114 7.72761 3.59516 7.67459 3.47335 7.67869C3.3518 7.68204 3.23838 7.74069 3.16537 7.83799C2.21466 9.10551 1.83443 10.7986 2.06604 12.7343C2.21088 13.9453 2.5481 14.8891 2.66274 15.1848L2.55671 16.8015C2.54677 16.913 2.5842 17.0235 2.65966 17.1061C2.73521 17.1887 2.84198 17.2357 2.95391 17.2357H18.7939C19.9405 17.2357 20.803 16.5856 21.3574 15.9328C22.1527 14.9961 21.9946 13.6401 21.9731 13.4954ZM20.7494 15.3102C20.3536 15.7763 19.6957 16.438 18.7939 16.438H3.38976L3.43326 15.5237L19.4957 15.5136C19.9988 15.5136 20.468 15.3846 20.8602 15.1628C20.8265 15.2132 20.7899 15.2625 20.7494 15.3102Z" fill="#1A1A1A"/>
</svg>
