<svg width="70" height="48" viewBox="0 0 70 48" fill="none" xmlns="http://www.w3.org/2000/svg">
<mask id="mask0_5080_33406" style="mask-type:alpha" maskUnits="userSpaceOnUse" x="0" y="0" width="70" height="48">
<rect width="70" height="47.9945" fill="#016FD0"/>
</mask>
<g mask="url(#mask0_5080_33406)">
<rect width="70" height="47.9945" rx="4" fill="white"/>
<path d="M15.1992 35.7924V25.927H25.6461L26.7669 27.388L27.9248 25.927H65.8443V35.1121C65.8443 35.1121 64.8526 35.7826 63.7057 35.7924H42.7089L41.4452 34.2373V35.7924H37.3042V33.1377C37.3042 33.1377 36.7385 33.5083 35.5156 33.5083H34.1061V35.7924H27.8362L26.717 34.3001L25.5805 35.7924H15.1992Z" fill="#016FD0"/>
<path d="M3 18.4916L5.35581 13H9.42993L10.7669 16.0762V13H15.8314L16.6273 15.2234L17.3989 13H40.1332V14.1178C40.1332 14.1178 41.3284 13 43.2925 13L50.669 13.0258L51.9828 16.0617V13H56.2211L57.3876 14.7439V13H61.6647V22.8654H57.3876L56.2697 21.1159V22.8654H50.0428L49.4166 21.3103H47.7426L47.1265 22.8654H42.9037C41.2136 22.8654 40.1332 21.7705 40.1332 21.7705V22.8654H33.7662L32.5025 21.3103V22.8654H8.82637L8.2006 21.3103H6.53193L5.91058 22.8654H3V18.4916Z" fill="#016FD0"/>
<path d="M6.18821 14.2161L3.01074 21.6038H5.07944L5.66572 20.1245H9.07406L9.6573 21.6038H11.7716L8.59713 14.2161H6.18821ZM7.36381 15.9354L8.40272 18.5205H6.32187L7.36381 15.9354V15.9354Z" fill="white"/>
<path d="M11.9902 21.6019V14.2141L14.93 14.225L16.6398 18.9882L18.3087 14.2141H21.2249V21.6019H19.378V16.1583L17.4202 21.6019H15.8004L13.8372 16.1583V21.6019H11.9902Z" fill="white"/>
<path d="M22.4902 21.6019V14.2141H28.5172V15.8667H24.3566V17.1304H28.4199V18.6857H24.3566V19.998H28.5172V21.6019H22.4902Z" fill="white"/>
<path d="M29.584 14.2161V21.6039H31.4309V18.9793H32.2086L34.4231 21.6039H36.6802L34.25 18.8821C35.2474 18.7979 36.2762 17.9419 36.2762 16.6129C36.2762 15.0582 35.0559 14.2161 33.6941 14.2161H29.584V14.2161ZM31.4309 15.8686H33.5422C34.0486 15.8686 34.4171 16.2648 34.4171 16.6463C34.4171 17.1371 33.9397 17.4239 33.5695 17.4239H31.4309V15.8686V15.8686Z" fill="white"/>
<path d="M38.919 21.6019H37.0332V14.2141H38.919V21.6019Z" fill="white"/>
<path d="M43.3908 21.6019H42.9837C41.0142 21.6019 39.8184 20.0503 39.8184 17.9384C39.8184 15.7744 41.0008 14.2141 43.488 14.2141H45.5294V15.9639H43.4133C42.4037 15.9639 41.6896 16.7518 41.6896 17.9566C41.6896 19.3874 42.5061 19.9883 43.6824 19.9883H44.1684L43.3908 21.6019Z" fill="white"/>
<path d="M47.4109 14.2161L44.2334 21.6038H46.3021L46.8884 20.1245H50.2967L50.88 21.6038H52.9942L49.8198 14.2161H47.4109ZM48.5865 15.9354L49.6254 18.5205H47.5445L48.5865 15.9354Z" fill="white"/>
<path d="M53.208 21.6019V14.2141H55.5562L58.5545 18.8558V14.2141H60.4014V21.6019H58.1292L55.055 16.8387V21.6019H53.208Z" fill="white"/>
<path d="M16.4639 34.5299V27.1421H22.4908V28.7946H18.3303V30.0583H22.3936V31.6137H18.3303V32.926H22.4908V34.5299H16.4639Z" fill="white"/>
<path d="M45.9941 34.5299V27.1421H52.0211V28.7946H47.8605V30.0583H51.9044V31.6137H47.8605V32.926H52.0211V34.5299H45.9941Z" fill="white"/>
<path d="M22.7242 34.5299L25.6586 30.8815L22.6543 27.1421H24.9812L26.7704 29.4538L28.5657 27.1421H30.8015L27.8367 30.836L30.7765 34.5299H28.45L26.7127 32.2546L25.0177 34.5299H22.7242Z" fill="white"/>
<path d="M30.9941 27.1431V34.5309H32.8897V32.1979H34.8339C36.4789 32.1979 37.7258 31.3252 37.7258 29.628C37.7258 28.222 36.7479 27.1431 35.0739 27.1431H30.9941V27.1431ZM32.8897 28.8138H34.9372C35.4686 28.8138 35.8485 29.1396 35.8485 29.6644C35.8485 30.1575 35.4705 30.515 34.9311 30.515H32.8897V28.8138Z" fill="white"/>
<path d="M38.5293 27.1421V34.5299H40.3763V31.9053H41.1539L43.3685 34.5299H45.6255L43.1953 31.8081C44.1927 31.7239 45.2215 30.8679 45.2215 29.5389C45.2215 27.9842 44.0013 27.1421 42.6394 27.1421H38.5293V27.1421ZM40.3763 28.7946H42.4875C42.994 28.7946 43.3624 29.1908 43.3624 29.5723C43.3624 30.0631 42.885 30.35 42.5148 30.35H40.3763V28.7946V28.7946Z" fill="white"/>
<path d="M52.8781 34.5299V32.926H56.5744C57.1213 32.926 57.3582 32.6304 57.3582 32.3063C57.3582 31.9957 57.1221 31.6817 56.5744 31.6817H54.9041C53.4522 31.6817 52.6436 30.7971 52.6436 29.469C52.6436 28.2844 53.384 27.1421 55.5416 27.1421H59.1383L58.3606 28.8044H55.25C54.6553 28.8044 54.4723 29.1164 54.4723 29.4143C54.4723 29.7206 54.6985 30.0583 55.1527 30.0583H56.9025C58.521 30.0583 59.2233 30.9764 59.2233 32.1787C59.2233 33.4713 58.4407 34.5299 56.8144 34.5299H52.8781Z" fill="white"/>
<path d="M59.6554 34.5299V32.926H63.3518C63.8987 32.926 64.1355 32.6304 64.1355 32.3063C64.1355 31.9957 63.8994 31.6817 63.3518 31.6817H61.6814C60.2295 31.6817 59.4209 30.7971 59.4209 29.469C59.4209 28.2844 60.1614 27.1421 62.3189 27.1421H65.8422L65.138 28.8044H62.0273C61.4327 28.8044 61.2496 29.1164 61.2496 29.4143C61.2496 29.7206 61.4758 30.0583 61.9301 30.0583H63.6798C65.2984 30.0583 66.0007 30.9764 66.0007 32.1787C66.0007 33.4713 65.2181 34.5299 63.5917 34.5299H59.6554Z" fill="white"/>
</g>
</svg>
