<svg width="14" height="15" viewBox="0 0 14 15" fill="none" xmlns="http://www.w3.org/2000/svg">
<path d="M13.3246 2.48523L12.295 1.24078C12.095 0.98893 11.7913 0.833374 11.4431 0.833374H2.55425C2.20611 0.833374 1.9024 0.98893 1.69499 1.24078L0.672772 2.48523C0.457957 2.73708 0.332031 3.07041 0.332031 3.42597V12.6852C0.332031 13.5 0.998698 14.1667 1.81351 14.1667H12.1839C12.9987 14.1667 13.6654 13.5 13.6654 12.6852V3.42597C13.6654 3.07041 13.5394 2.73708 13.3246 2.48523ZM2.73203 2.31486H11.2654L11.8802 3.0556H2.12462L2.73203 2.31486ZM1.81351 12.6852V4.53708H12.1839V12.6852H1.81351Z" fill="#E30000"/>
</svg>
