<svg width="132" height="129" viewBox="0 0 132 129" fill="none" xmlns="http://www.w3.org/2000/svg">
<path d="M130.617 65.8087C130.617 46.3552 122.046 28.9036 108.474 17.0243C97.0752 7.04662 82.1481 1 65.8087 1M7.25508 37.995C3.24451 46.423 1 55.8537 1 65.8087C1 86.5228 10.7179 104.967 25.8433 116.831" stroke="black"/>
<path d="M123.178 119.678C123.009 119.565 122.89 119.377 122.867 119.157L122.506 115.525C122.466 115.134 122.749 114.789 123.14 114.749C123.531 114.709 123.873 114.995 123.916 115.382L124.276 119.015C124.316 119.405 124.034 119.751 123.643 119.791C123.474 119.814 123.311 119.768 123.178 119.678Z" fill="black"/>
<path d="M124.017 128.149C123.849 128.036 123.73 127.848 123.707 127.628L123.346 123.996C123.306 123.605 123.589 123.26 123.98 123.22C124.37 123.18 124.717 123.469 124.756 123.853L125.116 127.486C125.156 127.876 124.873 128.222 124.483 128.262C124.31 128.282 124.147 128.236 124.017 128.149Z" fill="black"/>
<path d="M125.83 121.855C125.661 121.742 125.542 121.554 125.519 121.334C125.48 120.943 125.765 120.594 126.153 120.558L129.785 120.197C130.176 120.158 130.523 120.447 130.561 120.831C130.601 121.222 130.316 121.571 129.928 121.607L126.295 121.968C126.126 121.991 125.964 121.945 125.83 121.855Z" fill="black"/>
<path d="M117.365 122.698C117.196 122.585 117.078 122.397 117.054 122.177C117.015 121.786 117.297 121.441 117.688 121.401L121.32 121.04C121.711 121 122.058 121.29 122.096 121.674C122.136 122.065 121.854 122.41 121.463 122.45L117.831 122.81C117.657 122.831 117.499 122.787 117.365 122.698Z" fill="black"/>
<path d="M13.634 20.8722C13.5301 20.7929 13.4614 20.6677 13.4554 20.5254L13.3693 18.1807C13.3594 17.9284 13.5546 17.7181 13.8068 17.7081C14.0591 17.6982 14.2676 17.8958 14.2794 18.1457L14.3654 20.4904C14.3753 20.7427 14.1802 20.953 13.9279 20.9629C13.8184 20.9711 13.7161 20.9349 13.634 20.8722Z" fill="black"/>
<path d="M13.8371 26.3404C13.7333 26.2611 13.6645 26.1359 13.6585 25.9937L13.5725 23.649C13.5626 23.3967 13.7577 23.1863 14.01 23.1764C14.2623 23.1665 14.4732 23.3659 14.4825 23.6139L14.5685 25.9586C14.5784 26.2109 14.3833 26.4213 14.131 26.4312C14.0192 26.4375 13.9168 26.4013 13.8371 26.3404Z" fill="black"/>
<path d="M15.2516 22.375C15.1478 22.2957 15.079 22.1705 15.073 22.0283C15.0631 21.776 15.26 21.5632 15.5105 21.5557L17.8552 21.4697C18.1075 21.4598 18.3184 21.6592 18.3277 21.9072C18.3376 22.1595 18.1407 22.3723 17.8902 22.3798L15.5455 22.4658C15.4361 22.4739 15.3337 22.4378 15.2516 22.375Z" fill="black"/>
<path d="M9.78672 22.5772C9.6829 22.4979 9.61415 22.3727 9.60813 22.2304C9.59823 21.9781 9.79334 21.7678 10.0456 21.7579L12.3903 21.6718C12.6426 21.6619 12.8535 21.8613 12.8629 22.1093C12.8728 22.3616 12.6777 22.572 12.4254 22.5819L10.0807 22.6679C9.96879 22.6742 9.86881 22.6399 9.78672 22.5772Z" fill="black"/>
<path d="M82.4367 49.3346C82.2606 49.3346 82.1035 49.2127 82.0655 49.0366L79.0256 35.1104C78.0475 30.6209 73.9997 27.3643 69.4073 27.3643C66.641 27.3643 64.0806 28.4805 62.1976 30.5044C60.3146 32.5311 59.388 35.1646 59.5885 37.9227L60.3878 48.9282C60.404 49.1368 60.2442 49.3184 60.0355 49.3346C59.8269 49.3509 59.6427 49.1937 59.6291 48.9824L58.8299 37.9769C58.6131 35.0047 59.6129 32.168 61.6422 29.9842C63.6715 27.8032 66.4297 26.6002 69.41 26.6002C74.36 26.6002 78.7167 30.1089 79.7707 34.9451L82.8106 48.8713C82.8567 49.0772 82.7266 49.2777 82.5207 49.3238C82.4909 49.3319 82.4638 49.3346 82.4367 49.3346Z" fill="black"/>
<path d="M87.2699 44.6882L92.4746 48.6683C92.7157 48.8525 92.881 49.1154 92.9379 49.4134L102.245 95.8115C102.364 96.4103 102.033 97.0063 101.462 97.2231L86.4543 102.888L82.7344 76.8594L87.2699 44.6882Z" fill="white"/>
<path d="M86.4561 103.27C86.3884 103.27 86.3207 103.251 86.2638 103.216C86.1635 103.156 86.0985 103.056 86.0795 102.942L82.3595 76.9134C82.3541 76.8782 82.3541 76.843 82.3595 76.8078L86.895 44.6366C86.914 44.5038 87.0034 44.39 87.128 44.3386C87.2527 44.2871 87.3963 44.306 87.5046 44.3873L92.7093 48.3674C93.0236 48.6085 93.2377 48.9526 93.3163 49.3401L102.623 95.7382C102.78 96.5239 102.352 97.2961 101.602 97.5806L86.5943 103.246C86.5455 103.262 86.4995 103.27 86.4561 103.27ZM83.1209 76.8593L86.765 102.365L101.331 96.868C101.729 96.7163 101.956 96.3045 101.875 95.8872L92.5685 49.4891C92.5278 49.2832 92.4113 49.0989 92.2461 48.9716L87.5588 45.3844L83.1209 76.8593Z" fill="black"/>
<path d="M52.8961 49.3346C52.869 49.3346 52.8419 49.3319 52.8148 49.3265C52.6089 49.2804 52.4788 49.0799 52.5249 48.874L55.5648 34.9478C56.6188 30.1115 60.9782 26.6029 65.9255 26.6029C68.9058 26.6029 71.664 27.8059 73.6933 29.9869C75.7226 32.168 76.7197 35.0074 76.5056 37.9796L75.7064 48.9851C75.6901 49.1937 75.5086 49.3536 75.3 49.3373C75.0913 49.3211 74.9342 49.1395 74.9477 48.9309L75.747 37.9254C75.9475 35.1673 75.0209 32.531 73.1378 30.5071C71.2548 28.4805 68.6945 27.367 65.9282 27.367C61.3331 27.367 57.288 30.6236 56.3099 35.1131L53.27 49.0393C53.2293 49.2127 53.0722 49.3346 52.8961 49.3346Z" fill="black"/>
<path d="M44.7121 46.4004C44.8556 45.8612 45.3379 45.4819 45.896 45.4738L87.3198 44.8181L86.5042 103.018L31.0866 102.094C30.8183 102.089 30.5664 101.962 30.4065 101.748C30.2467 101.534 30.1898 101.257 30.2602 100.997L44.7121 46.4004Z" fill="#E30000"/>
<path d="M86.5028 103.4C86.5001 103.4 86.4974 103.4 86.4974 103.4L31.0798 102.479C30.6923 102.474 30.3347 102.292 30.1017 101.983C29.8687 101.674 29.7901 101.282 29.8904 100.908L44.3449 46.3083C44.5318 45.6066 45.1658 45.1108 45.8919 45.0972L87.3156 44.4415C87.4213 44.4388 87.5188 44.4795 87.5893 44.5526C87.6624 44.6258 87.7031 44.7233 87.7004 44.8263L86.8849 103.026C86.8821 103.127 86.8415 103.224 86.7683 103.295C86.6952 103.362 86.6004 103.4 86.5028 103.4ZM45.0791 46.498L30.6246 101.097C30.5867 101.244 30.6165 101.398 30.7086 101.52C30.8007 101.642 30.9416 101.712 31.0933 101.715L86.1289 102.631L86.9336 45.2029L45.9028 45.8531C45.5153 45.8613 45.1767 46.1268 45.0791 46.498Z" fill="black"/>
<path d="M62.6806 72.3481C59.9685 75.1578 62.09 77.4553 67.4356 77.5339L66.9181 78.4524C60.1067 78.3792 57.2266 75.7538 60.4779 72.5513C62.8622 70.2023 68.3161 67.7449 73.1659 67.0594L72.7433 67.8316C68.7551 68.5848 64.672 70.2917 62.6806 72.3481Z" fill="white"/>
<path d="M59.8015 72.5241C56.3091 75.9678 59.3653 78.8045 66.6779 78.8858L65.9572 80.17C65.6944 80.1781 65.4397 80.1781 65.1769 80.1781C56.8347 80.1781 53.6485 76.488 57.5337 72.4754C60.6414 69.2594 67.6695 66.5744 73.6193 66.2384L73.2833 66.8507C67.9323 67.4983 62.3537 70.0071 59.8015 72.5241Z" fill="white"/>
<path d="M54.5566 72.5107C58.2685 68.7393 66.589 65.8511 73.9964 65.5747L73.7336 66.019C67.3313 66.3333 60.1921 69.0454 56.9273 72.424C52.8443 76.6398 56.1552 80.609 64.92 80.609C65.1964 80.609 65.451 80.6009 65.7301 80.5955L64.9633 81.9529C63.9717 82.018 60.6771 82.2022 57.5342 81.2295C52.3376 79.6228 51.0913 76.0194 54.5566 72.5107Z" fill="white"/>
<path d="M68.8316 78.4116C68.3439 78.4333 67.8264 78.4468 67.4688 78.4549L67.9429 77.5419C68.2924 77.5338 68.7882 77.5283 69.1675 77.5121L68.8316 78.4116Z" fill="white"/>
<path d="M67.5994 81.7306C66.9871 81.7902 66.2284 81.8552 65.7109 81.8985L66.3829 80.5791C66.8354 80.5574 67.5046 80.5195 68.06 80.4843L67.5994 81.7306Z" fill="white"/>
<path d="M68.2113 80.0887C67.7751 80.1185 67.2277 80.1483 66.5938 80.17L67.244 78.8993C67.7778 78.8939 68.2736 78.8695 68.6719 78.8478L68.2113 80.0887Z" fill="white"/>
<path d="M100.538 95.9468C100.473 95.9468 100.408 95.9305 100.345 95.8953L93.0435 91.6334C92.9351 91.5711 92.8647 91.4573 92.8566 91.3327L89.673 49.7898C89.6568 49.5812 89.8139 49.3969 90.0226 49.3807C90.2339 49.3644 90.4154 49.5216 90.4317 49.7302L93.5989 91.0753L100.73 95.2369C100.912 95.3426 100.974 95.5756 100.865 95.7571C100.795 95.8791 100.668 95.9468 100.538 95.9468Z" fill="black"/>
<path d="M86.456 103.27C86.4532 103.27 86.4505 103.27 86.4505 103.27L31.0329 102.349C30.6455 102.344 30.2878 102.162 30.0548 101.853C29.8218 101.544 29.7432 101.151 29.8435 100.778L44.298 46.1782C44.485 45.4764 45.119 44.9806 45.8451 44.9671L87.2688 44.3114C87.3744 44.3087 87.472 44.3493 87.5424 44.4225C87.6156 44.4957 87.6562 44.5932 87.6535 44.6962L86.838 102.896C86.8353 102.997 86.7946 103.094 86.7215 103.165C86.6483 103.232 86.5535 103.27 86.456 103.27ZM45.0323 46.3678L30.5777 100.967C30.5398 101.114 30.5696 101.268 30.6617 101.39C30.7538 101.512 30.8947 101.582 31.0464 101.585L86.0821 102.501L86.8867 45.0727L45.8559 45.723C45.4685 45.7311 45.1298 45.9966 45.0323 46.3678Z" fill="black"/>
</svg>
