<svg width="70" height="48" viewBox="0 0 70 48" fill="none" xmlns="http://www.w3.org/2000/svg">
<rect width="70" height="47.9945" rx="4" fill="white"/>
<path d="M13.5099 17.1644C14.1954 16.9351 14.9281 16.8118 15.6915 16.8118C19.0169 16.8118 21.7933 19.1743 22.4299 22.3157L27.1449 21.3528C26.0631 16.0175 21.3464 12 15.6915 12C14.394 12 13.1489 12.2109 11.9844 12.6005L13.5099 17.1644Z" fill="#FBC707"/>
<path d="M7.94532 32.4451L11.1347 28.8401C9.71083 27.5787 8.8131 25.7388 8.8131 23.6888C8.8131 21.6398 9.70995 19.8008 11.132 18.5407L7.94268 14.9353C5.52468 17.0768 4 20.2049 4 23.6888C4 27.1745 5.52644 30.3036 7.94532 32.4451Z" fill="#38A7E4"/>
<path d="M22.4282 25.0694C21.7903 28.2072 19.0161 30.5662 15.6916 30.5662C14.9272 30.5662 14.1929 30.443 13.5082 30.2123L11.9805 34.7771C13.1454 35.1671 14.3932 35.3767 15.6916 35.3767C21.3412 35.3767 26.057 31.3676 27.1432 26.0349L22.4282 25.0694Z" fill="#EF3120"/>
<path d="M40.6905 27.5697C40.6888 27.5719 40.6879 27.5728 40.687 27.575L40.5523 27.4834C40.1662 28.1108 39.5647 28.618 38.8039 28.9469C37.3567 29.5765 36.0161 29.4149 35.0537 28.5705L34.9652 28.7043L34.9634 28.7021L33.3203 31.1584C33.728 31.4411 34.1656 31.6819 34.6257 31.8734C36.4392 32.6263 38.295 32.5911 40.123 31.7964C41.4447 31.2245 42.4824 30.3501 43.1922 29.2423L40.6905 27.5697ZM35.5644 21.5102C34.0384 22.1667 33.2498 23.5993 33.4123 25.2803L39.8831 22.4947C38.7714 21.1862 37.3224 20.7534 35.5644 21.5102ZM31.2686 28.9923C31.1136 28.7422 30.9036 28.3411 30.7773 28.047C30.031 26.3136 29.9949 24.5199 30.6254 22.798C31.3184 20.9088 32.6436 19.4634 34.3536 18.7272C36.5061 17.8009 38.8854 17.9845 40.9476 19.2071C42.2566 19.9582 43.1851 21.1184 43.8905 22.7588C43.9807 22.9688 44.0586 23.1943 44.1361 23.3845L31.2686 28.9923Z" fill="#231F20"/>
<path d="M48.6344 15.1093V28.7658L50.7574 29.6257L49.5511 32.4399L47.2079 31.4661C46.6814 31.2375 46.3239 30.8888 46.0522 30.4952C45.7942 30.0941 45.5996 29.5438 45.5996 28.8033V15.1093H48.6344Z" fill="#231F20"/>
<path d="M54.1347 25.2862C54.1356 24.1239 54.6498 23.0809 55.4617 22.3721L53.2832 19.9439C51.8061 21.2502 50.8767 23.1571 50.874 25.2832C50.8714 27.4115 51.7999 29.3205 53.2775 30.6299L55.452 28.1982C54.6446 27.4876 54.1338 26.4464 54.1347 25.2862Z" fill="#231F20"/>
<path d="M58.0038 29.1621C57.5745 29.1612 57.1628 29.0899 56.7767 28.9613L55.7363 32.0556C56.4474 32.2942 57.2099 32.4237 58.0011 32.4246C61.4494 32.4276 64.3301 29.9806 64.9975 26.7274L61.7994 26.0753C61.4366 27.8382 59.874 29.1639 58.0038 29.1621Z" fill="#231F20"/>
<path d="M58.0136 18.1549C57.2224 18.1541 56.4625 18.2826 55.751 18.5191L56.783 21.6151C57.1691 21.4878 57.5821 21.4165 58.0109 21.4165C59.8856 21.4187 61.4482 22.7519 61.8021 24.52L65.0003 23.8706C64.3434 20.6134 61.4662 18.1571 58.0136 18.1549Z" fill="#231F20"/>
</svg>
