<svg width="48" height="48" viewBox="0 0 48 48" fill="none" xmlns="http://www.w3.org/2000/svg">
<path d="M47.25 24C47.25 36.8406 36.8406 47.25 24 47.25C11.1594 47.25 0.75 36.8406 0.75 24C0.75 11.1594 11.1594 0.75 24 0.75C36.8406 0.75 47.25 11.1594 47.25 24Z" stroke="#E30000" stroke-width="1.5"/>
<path fill-rule="evenodd" clip-rule="evenodd" d="M19.1943 15.2327C19.1897 15.2281 19.185 15.2234 19.1804 15.2188C18.139 14.1774 16.4506 14.1774 15.4092 15.2188C14.3678 16.2601 14.3678 17.9485 15.4091 18.9899L15.409 18.99L30.4799 34.0609C30.4846 34.0656 30.4892 34.0703 30.4939 34.075C31.5353 35.1164 33.2237 35.1164 34.2651 34.075C35.3065 33.0336 35.3065 31.3451 34.2652 30.3037L34.2652 30.3037L19.1943 15.2327Z" fill="#E30000"/>
<path fill-rule="evenodd" clip-rule="evenodd" d="M30.2899 15.2329L15.219 30.3038L15.2191 30.3038C14.1777 31.3452 14.1777 33.0337 15.2191 34.0751C16.2605 35.1165 17.9489 35.1165 18.9903 34.0751C18.995 34.0704 18.9997 34.0656 19.0044 34.0609L34.0752 18.9901L34.0751 18.99C35.1165 17.9486 35.1164 16.2602 34.0751 15.2189C33.0337 14.1775 31.3452 14.1775 30.3038 15.2189C30.2992 15.2235 30.2945 15.2282 30.2899 15.2329Z" fill="#E30000"/>
</svg>
