<svg width="20" height="20" viewBox="0 0 20 20" fill="none" xmlns="http://www.w3.org/2000/svg">
<path d="M15.1046 4.82693C13.3452 3.62739 11.1727 4.18718 9.99986 5.55998C8.82698 4.18718 6.65448 3.62073 4.89515 4.82693C3.96218 5.46668 3.37574 6.54627 3.33575 7.68583C3.24246 10.2715 5.53491 12.344 9.03356 15.5228L9.1002 15.5828C9.60668 16.0426 10.3864 16.0426 10.8928 15.5761L10.9662 15.5095C14.4648 12.3374 16.7506 10.2648 16.664 7.67917C16.624 6.54627 16.0375 5.46668 15.1046 4.82693ZM10.0665 14.5299L9.99986 14.5965L9.93322 14.5299C6.7611 11.6576 4.66857 9.75837 4.66857 7.83244C4.66857 6.49962 5.66819 5.5 7.00101 5.5C8.02728 5.5 9.0269 6.15975 9.3801 7.07273H10.6263C10.9728 6.15975 11.9724 5.5 12.9987 5.5C14.3315 5.5 15.3311 6.49962 15.3311 7.83244C15.3311 9.75837 13.2386 11.6576 10.0665 14.5299Z" fill="#999999"/>
</svg>
