<svg width="24" height="24" viewBox="0 0 24 24" fill="none" xmlns="http://www.w3.org/2000/svg">
<path d="M17.8182 8.90909H15.6364V6H5.45455C4.65455 6 4 6.65455 4 7.45455V15.4545H5.45455C5.45455 16.6618 6.42909 17.6364 7.63636 17.6364C8.84364 17.6364 9.81818 16.6618 9.81818 15.4545H14.1818C14.1818 16.6618 15.1564 17.6364 16.3636 17.6364C17.5709 17.6364 18.5455 16.6618 18.5455 15.4545H20V11.8182L17.8182 8.90909ZM17.4545 10L18.88 11.8182H15.6364V10H17.4545ZM7.63636 16.1818C7.23636 16.1818 6.90909 15.8545 6.90909 15.4545C6.90909 15.0545 7.23636 14.7273 7.63636 14.7273C8.03636 14.7273 8.36364 15.0545 8.36364 15.4545C8.36364 15.8545 8.03636 16.1818 7.63636 16.1818ZM9.25091 14C8.85091 13.5564 8.28364 13.2727 7.63636 13.2727C6.98909 13.2727 6.42182 13.5564 6.02182 14H5.45455V7.45455H14.1818V14H9.25091ZM16.3636 16.1818C15.9636 16.1818 15.6364 15.8545 15.6364 15.4545C15.6364 15.0545 15.9636 14.7273 16.3636 14.7273C16.7636 14.7273 17.0909 15.0545 17.0909 15.4545C17.0909 15.8545 16.7636 16.1818 16.3636 16.1818Z" fill="#1A1A1A"/>
</svg>
