<svg width="218" height="32" viewBox="0 0 218 32" fill="none" xmlns="http://www.w3.org/2000/svg">
<path d="M19.3713 13.1947C14.1589 18.6639 18.2491 23.1363 28.5009 23.293L27.5239 25.0732C14.4402 24.9322 8.90933 19.8204 15.1575 13.5834C19.7207 9.02004 30.1982 4.23416 39.5101 2.89587L38.697 4.40341C31.036 5.86706 23.1957 9.18928 19.3713 13.1947Z" fill="white"/>
<path d="M13.8374 13.5366C7.11932 20.2406 12.9934 25.7661 27.0447 25.9228L25.6597 28.4301C25.1558 28.4301 24.6642 28.4301 24.1603 28.4301C8.13955 28.4364 2.01816 21.2498 9.4813 13.4363C15.4481 7.16795 28.9584 1.94642 40.3788 1.29138L39.7358 2.4855C29.4562 3.76111 18.7407 8.63787 13.8374 13.5366Z" fill="white"/>
<path d="M3.75553 13.5083C10.8817 6.16491 26.8653 0.539077 41.0929 0L40.589 0.86503C28.2936 1.49186 14.5823 6.7604 8.30638 13.339C0.462965 21.5474 6.81004 29.2731 23.6562 29.2731C24.188 29.2731 24.6795 29.2731 25.202 29.2449L23.7304 31.887C21.826 32.0155 15.4944 32.3728 9.45955 30.4798C-0.513982 27.3456 -2.90689 20.3407 3.74625 13.5083" fill="white"/>
<path d="M31.1781 24.9982C30.2506 25.0421 29.2427 25.0703 28.5564 25.0859L29.4839 23.3089C30.1548 23.3089 31.107 23.2806 31.8366 23.2524L31.1781 24.9982Z" fill="white"/>
<path d="M28.8098 31.4608C27.6319 31.5768 26.1758 31.7022 25.1833 31.7899L26.4725 29.2168C27.3382 29.176 28.6367 29.1039 29.6909 29.0319L28.8098 31.4608Z" fill="white"/>
<path d="M29.9971 28.2669C29.1593 28.3233 28.1082 28.3797 26.9055 28.4236L28.1422 25.9508C29.1655 25.9508 30.1177 25.8943 30.8875 25.8505L29.9971 28.2669Z" fill="white"/>
<path d="M85.1051 31.1569H78.1954C75.617 31.1569 73.8671 30.4925 72.8376 29.2043C71.8081 27.9162 71.567 25.9699 72.0987 23.3591L75.2089 8.50631C75.8612 5.39722 76.8845 3.3224 78.1954 2.23798C79.5062 1.15356 81.7538 0.670898 84.7774 0.670898H90.7504L90.0146 4.11848H85.6863C84.3353 4.11848 83.3955 4.40996 82.74 4.98978C82.0846 5.5696 81.6765 6.60701 81.389 8.06126L80.8171 10.7159H88.0143L87.158 14.7903H79.9545L78.3159 22.6696C77.948 24.4968 77.948 25.7818 78.3994 26.5716C78.8508 27.3615 79.8308 27.7313 81.3024 27.7313H85.844L85.1051 31.1569Z" fill="white"/>
<path d="M105.76 31.1566H99.7067L104.78 7.02357C104.941 6.10839 104.86 5.45649 104.493 4.98949C104.125 4.5225 103.389 4.28431 102.366 4.28431H101.302L95.6567 31.1566H89.6064L95.9844 0.66748H106.051C107.974 0.66748 109.362 1.20656 110.181 2.28471C111 3.36286 111.285 4.85786 110.877 6.80731L105.76 31.1566Z" fill="white"/>
<path d="M132.06 4.10879H126.335L120.689 31.1566H114.636L120.281 4.10879H114.676L115.372 0.66748H132.756L132.06 4.10879Z" fill="white"/>
<path d="M145.932 31.1567H139.83L143.267 14.7681H138.482L135.047 31.1567H128.993L133.696 8.67217C134.268 5.97678 135.421 3.90197 137.131 2.50726C138.84 1.11256 141.15 0.350952 143.932 0.350952C146.877 0.350952 148.882 1.01435 149.945 2.34115C151.009 3.71078 151.213 5.78873 150.641 8.68784L145.932 31.1567ZM144.133 10.7031L144.829 7.38716C145.113 6.13349 145.113 5.23085 144.829 4.69178C144.544 4.1527 144.05 3.90197 143.193 3.90197C142.25 3.90197 141.555 4.19344 141.106 4.69178C140.658 5.19011 140.287 6.09902 140.043 7.38716L139.347 10.7031H144.133Z" fill="white"/>
<path d="M170.22 22.7352C169.602 25.7628 168.421 28.0037 166.785 29.4548C165.15 30.9059 162.859 31.6487 160.077 31.6487C157.378 31.6487 155.498 30.9028 154.351 29.3702C153.204 27.8376 153 25.675 153.615 22.732L158.237 0.66748H164.29L159.709 22.6067C159.341 24.2678 159.26 25.4274 159.424 26.1326C159.588 26.8378 160.117 27.17 161.016 27.17C161.394 27.1846 161.768 27.1009 162.104 26.927C162.44 26.753 162.727 26.4946 162.936 26.1765C163.428 25.5496 163.836 24.3524 164.204 22.6098L168.786 0.670615H174.839L170.22 22.7352Z" fill="white"/>
<path d="M216.808 15.9843C215.497 22.1649 213.902 26.3271 211.982 28.4677C211.058 29.4965 209.928 30.3132 208.668 30.8629C207.407 31.4127 206.045 31.6828 204.673 31.6552C201.727 31.6552 199.727 30.5739 198.66 28.4583C197.593 26.3428 197.733 22.1555 199.028 15.9749C200.336 9.70661 201.971 5.5601 203.854 3.43827C204.796 2.42444 205.939 1.6233 207.207 1.08706C208.476 0.550819 209.841 0.291516 211.215 0.326045C214.202 0.326045 216.245 1.26629 217.309 3.1468C218.372 5.0273 218.208 9.32737 216.82 15.9655L216.808 15.9843ZM210.547 15.9843C211.174 13.1937 211.639 10.3681 211.938 7.52209C212.146 5.56951 211.571 4.57598 210.303 4.57598C209.035 4.57598 208.096 5.56951 207.4 7.56284C206.529 10.3255 205.819 13.1374 205.273 15.9843C204.413 20.0588 203.922 22.9955 203.842 24.7757C203.761 26.5559 204.333 27.3896 205.557 27.3896C206.782 27.3896 207.768 26.4493 208.423 24.4435C209.076 22.4971 209.771 19.6733 210.547 15.9812" fill="white"/>
<path d="M67.2728 31.1569H60.3197C57.7846 31.1569 55.9915 30.4925 54.962 29.2043C53.9325 27.9162 53.6944 25.9699 54.2664 23.3591L57.3734 8.50631C58.0289 5.39722 59.012 3.3224 60.3599 2.23798C61.7079 1.15356 63.8782 0.670898 66.9451 0.670898H72.8779L72.139 4.11848H67.8107C66.503 4.11848 65.5198 4.40996 64.9077 4.98978C64.2955 5.5696 63.804 6.60701 63.5165 8.06126L62.9445 10.7159L62.1252 14.7903L60.4496 22.6696C60.0817 24.4968 60.1219 25.7818 60.53 26.5716C60.9381 27.3615 61.9614 27.7313 63.4763 27.7313H67.9746L67.2728 31.1569Z" fill="white"/>
<path d="M189.812 8.83826C190.22 6.95776 190.263 5.68528 190.016 5.02397C189.768 4.36266 189.116 4.02731 188.053 4.02731H186.457L184.494 13.4298H186.253C186.676 13.4429 187.096 13.356 187.479 13.1759C187.863 12.9958 188.2 12.7276 188.464 12.3924C188.992 11.728 189.444 10.5276 189.812 8.82572V8.83826ZM188.136 19.4317C188.3 18.6451 188.176 18.0621 187.849 17.6891C187.521 17.3162 186.989 17.0623 186.253 17.0623H183.718L180.772 31.1661H174.719L181.1 0.66748H190.344C192.879 0.66748 194.598 1.2473 195.497 2.45082C196.397 3.65434 196.641 5.39694 196.116 7.80085C195.748 9.62807 195.095 11.1199 194.112 12.2388C193.143 13.3786 191.863 14.2019 190.433 14.6051C191.821 14.7712 192.845 15.3103 193.457 16.2224C194.069 17.1344 194.196 18.2564 193.908 19.5822L191.453 31.1567H185.681L188.136 19.4317Z" fill="white"/>
</svg>
