<svg width="70" height="48" viewBox="0 0 70 48" fill="none" xmlns="http://www.w3.org/2000/svg">
<rect width="70" height="47.9945" rx="4" fill="white"/>
<g clip-path="url(#clip0_5081_33588)">
<path d="M22.7458 11H16.4236C13.6302 11.1321 11.3468 12.2572 10.6875 14.5774C10.3437 15.7874 10.1545 17.1163 9.8857 18.3706C8.51906 24.7486 7.30725 31.302 6 37.5526H55.2194C59.0246 37.5526 61.6371 36.7485 62.3433 33.7285C62.6712 32.3256 62.9855 30.7365 63.2993 29.1951C64.5226 23.1854 65.747 17.176 67 11H22.7458Z" fill="#B82126"/>
<path d="M48.1404 26.864C47.4578 27.5322 45.5416 27.722 45.7377 26.1247C45.9005 24.798 47.3448 24.5161 48.9104 24.7077C48.794 25.4333 48.6605 26.3548 48.1404 26.864ZM45.9841 21.6889C45.9189 22.0549 45.8188 22.3861 45.7377 22.7362C46.5193 22.5403 48.9532 21.9394 49.1878 22.9826C49.2656 23.3292 49.1313 23.6975 49.0337 23.9684C46.8327 23.7599 45.0388 24.1255 44.5671 25.6934C44.2511 26.7435 44.6025 27.7769 45.2756 28.0654C46.5721 28.6208 48.149 27.9846 48.6949 27.1105C48.6382 27.4131 48.5845 27.7187 48.6024 28.0962H49.7422C49.7542 27.0046 49.9131 26.1211 50.081 25.1389C50.2242 24.3024 50.4934 23.4744 50.4506 22.7362C50.3528 21.0455 47.5519 21.6436 45.9841 21.6889ZM57.4124 27.3876C56.5207 27.4067 56.0773 26.8549 56.057 25.9399C56.0214 24.3374 56.7244 22.557 58.1517 22.3973C58.8162 22.3231 59.2974 22.4776 59.7843 22.6438C59.3373 24.4438 59.4987 27.3429 57.4124 27.3876ZM60.3695 18.9165C60.256 19.9119 60.1043 20.8691 59.9076 21.7812C56.6585 20.7528 54.6658 23.1433 54.7016 26.0938C54.7086 26.6645 54.8068 27.2303 55.1637 27.634C55.7788 28.3296 57.5399 28.496 58.4289 27.9114C58.6011 27.7982 58.777 27.5923 58.8911 27.4493C58.9767 27.3417 59.1128 27.0601 59.1373 27.1411C59.0907 27.4539 59.0208 27.7434 59.0143 28.0962H60.2156C60.4471 24.7749 61.163 21.938 61.6942 18.9165H60.3695ZM26.4543 26.8948C25.7456 27.6454 24.0034 27.6339 23.8668 26.3711C23.8072 25.8216 24.012 25.2454 24.1132 24.6769C24.2156 24.1015 24.2892 23.5494 24.3903 23.0442C25.0883 22.1918 27.1395 22.089 27.3476 23.5063C27.5282 24.7369 27.0412 26.2732 26.4543 26.8948ZM27.5017 21.6889C26.3806 21.2678 25.0142 21.7705 24.4219 22.2487C24.4239 22.2697 24.4078 22.2726 24.3903 22.2741C24.4005 22.2656 24.4114 22.2572 24.4219 22.2487C24.4218 22.2469 24.4216 22.2453 24.4212 22.2434C24.4312 22.0377 24.5036 21.8945 24.5136 21.6889H23.3739C22.8989 24.8488 22.3357 27.9203 21.7412 30.9609H23.0658C23.2575 29.7767 23.3842 28.5275 23.6511 27.4185C23.9536 28.5849 25.9288 28.3619 26.7623 27.9114C28.4821 26.9814 29.8085 22.5555 27.5017 21.6889ZM33.7856 23.9068H30.6745C30.7729 23.1915 31.4164 22.4053 32.4302 22.3666C33.3845 22.3301 34.0677 22.7169 33.7856 23.9068ZM32.5227 21.5657C31.5656 21.6394 30.7566 21.9148 30.1816 22.5205C29.4764 23.2635 28.9053 24.9061 29.0726 26.4019C29.3113 28.536 31.9684 28.4594 34.0937 27.9421C34.1299 27.5676 34.2205 27.2474 34.2785 26.8948C33.403 27.2224 31.8829 27.6797 30.9825 27.1105C30.3026 26.6806 30.2987 25.5921 30.5205 24.6461C31.9488 24.6006 33.4334 24.6094 34.8638 24.6461C34.9546 23.9756 35.2142 23.2445 34.987 22.5822C34.6872 21.7079 33.6145 21.4816 32.5227 21.5657ZM20.8787 21.6889C20.8429 21.694 20.8453 21.7376 20.8479 21.7812C20.556 23.964 20.1611 26.0437 19.739 28.0962H21.0635C21.3818 25.8987 21.7464 23.7477 22.2033 21.6889H20.8787ZM55.441 21.7196C54.2703 21.1344 53.2957 22.1165 52.9151 22.7053C53.0235 22.4032 53.0297 21.9987 53.1306 21.6889H51.96C51.6445 23.889 51.2639 26.0241 50.8203 28.0962H52.1757C52.1843 27.247 52.351 26.6188 52.4837 25.7858C52.767 24.0076 53.1828 22.0574 55.2562 22.6438C55.325 22.343 55.3536 22.0019 55.441 21.7196ZM40.5625 26.5867C40.4405 26.2713 40.4088 25.7504 40.4393 25.3545C40.5078 24.4644 40.8321 23.3807 41.3326 22.8902C42.0234 22.2131 43.387 22.3252 44.4746 22.7053C44.5084 22.3387 44.582 22.0118 44.6287 21.6582C42.8448 21.3668 41.152 21.548 40.2545 22.4898C39.376 23.4117 38.7999 25.5307 39.2071 26.864C39.6837 28.4241 41.8204 28.5089 43.5507 27.9114C43.6271 27.5978 43.6676 27.2481 43.7354 26.9256C42.7901 27.4168 40.9827 27.672 40.5625 26.5867ZM39.8233 21.6889C38.6488 21.2145 37.7255 22.0161 37.2974 22.767C37.3944 22.433 37.4345 22.0417 37.513 21.6889H36.3424C36.0563 23.9082 35.6344 25.9918 35.2335 28.0962H36.5581C36.7438 26.847 36.8239 25.1633 37.2357 23.9684C37.5649 23.0136 38.4263 22.2001 39.6693 22.6438C39.6867 22.2916 39.7875 22.0227 39.8233 21.6889ZM18.4761 19.1013C18.2868 20.3291 18.0737 21.5329 17.86 22.7362C16.4877 22.7507 15.0866 22.804 13.763 22.7053C14.013 21.5283 14.1923 20.2803 14.4406 19.1013H12.9621C12.4328 22.1043 11.9513 25.155 11.3604 28.0962H12.8697C13.1065 26.5873 13.3279 25.0632 13.6397 23.6295C14.9267 23.5978 16.4692 23.5426 17.7059 23.6604C17.4509 25.1509 17.1428 26.5883 16.905 28.0962H18.4145C18.8994 25.0489 19.4104 22.0277 20.0163 19.1013H18.4761ZM22.2341 20.4567C22.4982 20.2749 22.8383 19.4462 22.4498 19.1013C22.3267 18.9921 22.1208 18.9604 21.8337 19.009C21.5673 19.0539 21.4141 19.1444 21.3101 19.2861C21.1426 19.5141 20.9893 20.2013 21.2483 20.4567C21.5007 20.7054 22.0661 20.5724 22.2341 20.4567Z" fill="white"/>
</g>
<defs>
<clipPath id="clip0_5081_33588">
<rect width="61" height="26.5684" fill="white" transform="translate(6 11)"/>
</clipPath>
</defs>
</svg>
