<svg width="20" height="20" viewBox="0 0 20 20" fill="none" xmlns="http://www.w3.org/2000/svg">
<path d="M8.33317 11.1668H7.83317V11.6668V15.8334C7.83317 16.0156 7.68203 16.1668 7.49984 16.1668H4.99984C4.81765 16.1668 4.6665 16.0156 4.6665 15.8334V10.0001V9.5001H4.1665H2.97213L9.7749 3.37272C9.77505 3.37258 9.7752 3.37245 9.77535 3.37232C9.90205 3.25937 10.0976 3.25936 10.2243 3.37229C10.2245 3.37243 10.2246 3.37258 10.2248 3.37272L17.0275 9.5001H15.8332H15.3332V10.0001V15.8334C15.3332 16.0156 15.182 16.1668 14.9998 16.1668H12.4998C12.3176 16.1668 12.1665 16.0156 12.1665 15.8334V11.6668V11.1668H11.6665H8.33317Z" stroke="#E30000"/>
</svg>
