<svg width="109" height="16" viewBox="0 0 109 16" fill="none" xmlns="http://www.w3.org/2000/svg">
<path d="M9.68531 6.59731C7.07908 9.33187 9.12418 11.5681 14.2501 11.6465L13.7616 12.5366C7.21975 12.466 4.4543 9.91013 7.57837 6.79163C9.85998 4.50996 15.0987 2.11702 19.7547 1.44788L19.3481 2.20164C15.5176 2.93347 11.5975 4.59458 9.68531 6.59731Z" fill="#E30000"/>
<path d="M6.9182 6.76823C3.55917 10.1202 6.4962 12.883 13.5219 12.9613L12.8294 14.215C12.5774 14.215 12.3316 14.215 12.0796 14.215C4.06929 14.2181 1.00859 10.6248 4.74016 6.71808C7.72357 3.58391 14.4787 0.973151 20.1889 0.64563L19.8674 1.24269C14.7276 1.88049 9.36985 4.31888 6.9182 6.76823Z" fill="#E30000"/>
<path d="M1.87776 6.75413C5.44084 3.08245 13.4327 0.269538 20.5464 0L20.2945 0.432515C14.1468 0.745932 7.29117 3.3802 4.15319 6.66951C0.231483 10.7737 3.40502 14.6366 11.8281 14.6366C12.094 14.6366 12.3398 14.6366 12.601 14.6225L11.8652 15.9435C10.913 16.0078 7.74718 16.1864 4.72977 15.2399C-0.256991 13.6728 -1.45344 10.1704 1.87313 6.75413" fill="#E30000"/>
<path d="M15.5892 12.4991C15.1254 12.521 14.6215 12.5351 14.2783 12.543L14.7421 11.6544C15.0775 11.6544 15.5536 11.6403 15.9184 11.6262L15.5892 12.4991Z" fill="#E30000"/>
<path d="M14.405 15.7305C13.8161 15.7885 13.088 15.8511 12.5918 15.895L13.2364 14.6084C13.6692 14.5881 14.3185 14.552 14.8456 14.516L14.405 15.7305Z" fill="#E30000"/>
<path d="M14.9989 14.1335C14.58 14.1617 14.0544 14.1899 13.4531 14.2119L14.0714 12.9754C14.5831 12.9754 15.0592 12.9472 15.4441 12.9253L14.9989 14.1335Z" fill="#E30000"/>
<path d="M42.5522 15.5785H39.0973C37.8081 15.5785 36.9332 15.2462 36.4184 14.6022C35.9037 13.9581 35.7831 12.9849 36.049 11.6796L37.6041 4.25316C37.9302 2.69861 38.4419 1.6612 39.0973 1.11899C39.7527 0.57678 40.8765 0.335449 42.3883 0.335449H45.3748L45.0069 2.05924H42.8428C42.1673 2.05924 41.6974 2.20498 41.3697 2.49489C41.0419 2.7848 40.8379 3.3035 40.6941 4.03063L40.4082 5.35795H44.0068L43.5786 7.39516H39.9769L39.1576 11.3348C38.9737 12.2484 38.9737 12.8909 39.1993 13.2858C39.425 13.6807 39.9151 13.8656 40.6509 13.8656H42.9216L42.5522 15.5785Z" fill="#E30000"/>
<path d="M52.8806 15.5783H49.8539L52.3905 3.51178C52.4709 3.0542 52.4307 2.72824 52.2468 2.49475C52.0628 2.26125 51.6949 2.14215 51.1833 2.14215H50.6515L47.8289 15.5783H44.8037L47.9927 0.33374H53.0259C53.9873 0.33374 54.6814 0.603278 55.0911 1.14235C55.5007 1.68143 55.6429 2.42893 55.4389 3.40366L52.8806 15.5783Z" fill="#E30000"/>
<path d="M66.0305 2.0544H63.1677L60.345 15.5783H57.3184L60.141 2.0544H57.3385L57.6863 0.33374H66.3783L66.0305 2.0544Z" fill="#E30000"/>
<path d="M72.9665 15.5783H69.9151L71.6341 7.384H69.2412L67.5238 15.5783H64.4971L66.8482 4.33602C67.1342 2.98833 67.7108 1.95092 68.5656 1.25357C69.4205 0.556217 70.5752 0.175415 71.9664 0.175415C73.439 0.175415 74.4412 0.507115 74.973 1.17051C75.5048 1.85533 75.6068 2.89431 75.3208 4.34386L72.9665 15.5783ZM72.0669 5.3515L72.4147 3.69352C72.5569 3.06669 72.5569 2.61537 72.4147 2.34583C72.2725 2.07629 72.0252 1.95092 71.597 1.95092C71.1255 1.95092 70.7777 2.09666 70.5535 2.34583C70.3294 2.59499 70.1439 3.04945 70.0218 3.69352L69.674 5.3515H72.0669Z" fill="#E30000"/>
<path d="M85.1103 11.3676C84.8012 12.8814 84.2107 14.0018 83.3929 14.7274C82.5752 15.453 81.4298 15.8244 80.0385 15.8244C78.689 15.8244 77.7492 15.4514 77.1757 14.6851C76.6022 13.9188 76.5002 12.8375 76.8078 11.366L79.1188 0.33374H82.1455L79.8546 11.3033C79.6706 12.1339 79.6304 12.7137 79.7124 13.0663C79.7943 13.4189 80.0586 13.585 80.5085 13.585C80.697 13.5923 80.8842 13.5505 81.0523 13.4635C81.2204 13.3765 81.3636 13.2473 81.4684 13.0882C81.7142 12.7748 81.9182 12.1762 82.1022 11.3049L84.3931 0.335307H87.4197L85.1103 11.3676Z" fill="#E30000"/>
<path d="M108.404 7.99217C107.748 11.0825 106.95 13.1635 105.991 14.2339C105.529 14.7483 104.964 15.1566 104.333 15.4315C103.703 15.7063 103.022 15.8414 102.336 15.8276C100.863 15.8276 99.8629 15.2869 99.3296 14.2292C98.7963 13.1714 98.8659 11.0778 99.5136 7.98747C100.167 4.8533 100.985 2.78005 101.927 1.71914C102.398 1.21222 102.969 0.811648 103.603 0.543529C104.237 0.27541 104.92 0.145758 105.607 0.163022C107.1 0.163022 108.122 0.633147 108.654 1.5734C109.186 2.51365 109.104 4.66369 108.41 7.98277L108.404 7.99217ZM105.273 7.99217C105.587 6.59686 105.819 5.18404 105.969 3.76105C106.072 2.78475 105.785 2.28799 105.151 2.28799C104.517 2.28799 104.047 2.78475 103.7 3.78142C103.264 5.16273 102.909 6.56872 102.636 7.99217C102.206 10.0294 101.961 11.4977 101.92 12.3878C101.88 13.2779 102.166 13.6948 102.778 13.6948C103.39 13.6948 103.884 13.2247 104.211 12.2217C104.537 11.2486 104.885 9.83663 105.273 7.99061" fill="#E30000"/>
<path d="M33.6365 15.5785H30.16C28.8924 15.5785 27.9959 15.2462 27.4811 14.6022C26.9664 13.9581 26.8473 12.9849 27.1333 11.6796L28.6868 4.25316C29.0145 2.69861 29.5061 1.6612 30.1801 1.11899C30.8541 0.57678 31.9392 0.335449 33.4726 0.335449H36.439L36.0696 2.05924H33.9055C33.2516 2.05924 32.76 2.20498 32.454 2.49489C32.1479 2.7848 31.9021 3.3035 31.7583 4.03063L31.4724 5.35795L31.0627 7.39516L30.2249 11.3348C30.041 12.2484 30.0611 12.8909 30.2651 13.2858C30.4691 13.6807 30.9808 13.8656 31.7383 13.8656H33.9874L33.6365 15.5785Z" fill="#E30000"/>
<path d="M94.906 4.41913C95.1101 3.47888 95.1317 2.84264 95.008 2.51199C94.8844 2.18133 94.5582 2.01365 94.0264 2.01365H93.2288L92.2472 6.71491H93.1268C93.3381 6.72146 93.548 6.678 93.7399 6.58796C93.9317 6.49792 94.1002 6.36378 94.232 6.1962C94.4964 5.86398 94.7221 5.26379 94.906 4.41286V4.41913ZM94.0682 9.71587C94.1501 9.32253 94.0883 9.03106 93.9244 8.84457C93.7606 8.65809 93.4947 8.53116 93.1268 8.53116H91.8592L90.3861 15.583H87.3594L90.5499 0.33374H95.1719C96.4395 0.33374 97.2989 0.623651 97.7488 1.22541C98.1986 1.82717 98.3207 2.69847 98.0579 3.90042C97.874 4.81403 97.5478 5.55997 97.0562 6.11941C96.5718 6.68928 95.9317 7.10096 95.2167 7.30256C95.9108 7.38562 96.4224 7.65516 96.7285 8.11118C97.0346 8.5672 97.098 9.12822 96.9542 9.79109L95.7268 15.5783H92.8408L94.0682 9.71587Z" fill="#E30000"/>
</svg>
