<svg viewBox="0 0 83 16" fill="none" xmlns="http://www.w3.org/2000/svg">
<path d="M16.5522 15.5785H13.0973C11.8081 15.5785 10.9332 15.2462 10.4184 14.6022C9.90369 13.9581 9.78311 12.9849 10.049 11.6796L11.6041 4.25316C11.9302 2.69861 12.4419 1.6612 13.0973 1.11899C13.7527 0.57678 14.8765 0.335449 16.3883 0.335449H19.3748L19.0069 2.05924H16.8428C16.1673 2.05924 15.6974 2.20498 15.3697 2.49489C15.0419 2.7848 14.8379 3.3035 14.6941 4.03063L14.4082 5.35795H18.0068L17.5786 7.39516H13.9769L13.1576 11.3348C12.9737 12.2484 12.9737 12.8909 13.1993 13.2858C13.425 13.6807 13.9151 13.8656 14.6509 13.8656H16.9216L16.5522 15.5785Z" fill="#E30000"/>
<path d="M26.8796 15.5783H23.8529L26.3896 3.51178C26.4699 3.0542 26.4297 2.72824 26.2458 2.49475C26.0618 2.26125 25.6939 2.14215 25.1823 2.14215H24.6505L21.8279 15.5783H18.8027L21.9917 0.33374H27.0249C27.9864 0.33374 28.6804 0.603278 29.0901 1.14235C29.4997 1.68143 29.6419 2.42893 29.4379 3.40366L26.8796 15.5783Z" fill="#E30000"/>
<path d="M40.0305 2.0544H37.1677L34.345 15.5783H31.3184L34.141 2.0544H31.3385L31.6863 0.33374H40.3783L40.0305 2.0544Z" fill="#E30000"/>
<path d="M46.9656 15.5783H43.9142L45.6331 7.384H43.2402L41.5228 15.5783H38.4961L40.8473 4.33602C41.1332 2.98833 41.7098 1.95092 42.5647 1.25357C43.4195 0.556217 44.5742 0.175415 45.9654 0.175415C47.4381 0.175415 48.4403 0.507115 48.972 1.17051C49.5038 1.85533 49.6058 2.89431 49.3198 4.34386L46.9656 15.5783ZM46.0659 5.3515L46.4137 3.69352C46.5559 3.06669 46.5559 2.61537 46.4137 2.34583C46.2715 2.07629 46.0242 1.95092 45.596 1.95092C45.1245 1.95092 44.7767 2.09666 44.5526 2.34583C44.3284 2.59499 44.1429 3.04945 44.0208 3.69352L43.673 5.3515H46.0659Z" fill="#E30000"/>
<path d="M59.1093 11.3676C58.8002 12.8814 58.2097 14.0018 57.392 14.7274C56.5742 15.453 55.4288 15.8244 54.0376 15.8244C52.6881 15.8244 51.7482 15.4514 51.1747 14.6851C50.6012 13.9188 50.4992 12.8375 50.8068 11.366L53.1178 0.33374H56.1445L53.8536 11.3033C53.6697 12.1339 53.6295 12.7137 53.7114 13.0663C53.7933 13.4189 54.0576 13.585 54.5075 13.585C54.696 13.5923 54.8833 13.5505 55.0513 13.4635C55.2194 13.3765 55.3626 13.2473 55.4674 13.0882C55.7132 12.7748 55.9173 12.1762 56.1012 11.3049L58.3921 0.335307H61.4188L59.1093 11.3676Z" fill="#E30000"/>
<path d="M82.4045 7.99217C81.7491 11.0825 80.9515 13.1635 79.9915 14.2339C79.5297 14.7483 78.9647 15.1566 78.3344 15.4315C77.7041 15.7063 77.0232 15.8414 76.3372 15.8276C74.8641 15.8276 73.8639 15.2869 73.3306 14.2292C72.7973 13.1714 72.8669 11.0778 73.5146 7.98747C74.1684 4.8533 74.9862 2.78005 75.9276 1.71914C76.3988 1.21222 76.9701 0.811648 77.6043 0.543529C78.2385 0.27541 78.9212 0.145758 79.6081 0.163022C81.1014 0.163022 82.1232 0.633147 82.6549 1.5734C83.1867 2.51365 83.1048 4.66369 82.4107 7.98277L82.4045 7.99217ZM79.2742 7.99217C79.5878 6.59686 79.8201 5.18404 79.9699 3.76105C80.0734 2.78475 79.7859 2.28799 79.1521 2.28799C78.5183 2.28799 78.0484 2.78475 77.7006 3.78142C77.2652 5.16273 76.9101 6.56872 76.6371 7.99217C76.2074 10.0294 75.9616 11.4977 75.9214 12.3878C75.8812 13.2779 76.1672 13.6948 76.7793 13.6948C77.3914 13.6948 77.8846 13.2247 78.2123 12.2217C78.5384 11.2486 78.8862 9.83663 79.2742 7.99061" fill="#E30000"/>
<path d="M7.63553 15.5785H4.15901C2.89145 15.5785 1.99488 15.2462 1.48013 14.6022C0.965379 13.9581 0.846352 12.9849 1.13233 11.6796L2.68586 4.25316C3.01357 2.69861 3.50514 1.6612 4.17911 1.11899C4.85308 0.57678 5.93823 0.335449 7.47167 0.335449H10.4381L10.0686 2.05924H7.9045C7.25062 2.05924 6.75906 2.20498 6.45299 2.49489C6.14692 2.7848 5.90113 3.3035 5.75737 4.03063L5.4714 5.35795L5.06176 7.39516L4.22394 11.3348C4.03998 12.2484 4.06008 12.8909 4.26413 13.2858C4.46817 13.6807 4.97983 13.8656 5.73728 13.8656H7.98642L7.63553 15.5785Z" fill="#E30000"/>
<path d="M68.906 4.41913C69.1101 3.47888 69.1317 2.84264 69.008 2.51199C68.8844 2.18133 68.5582 2.01365 68.0264 2.01365H67.2288L66.2472 6.71491H67.1268C67.3381 6.72146 67.548 6.678 67.7399 6.58796C67.9317 6.49792 68.1002 6.36378 68.232 6.1962C68.4964 5.86398 68.7221 5.26379 68.906 4.41286V4.41913ZM68.0682 9.71587C68.1501 9.32253 68.0883 9.03106 67.9244 8.84457C67.7606 8.65809 67.4947 8.53116 67.1268 8.53116H65.8592L64.3861 15.583H61.3594L64.5499 0.33374H69.1719C70.4395 0.33374 71.2989 0.623651 71.7488 1.22541C72.1986 1.82717 72.3207 2.69847 72.0579 3.90042C71.874 4.81403 71.5478 5.55997 71.0562 6.11941C70.5718 6.68928 69.9317 7.10096 69.2167 7.30256C69.9108 7.38562 70.4224 7.65516 70.7285 8.11118C71.0346 8.5672 71.098 9.12822 70.9542 9.79109L69.7268 15.5783H66.8408L68.0682 9.71587Z" fill="#E30000"/>
</svg>
