<svg width="21" height="16" viewBox="0 0 21 16" fill="none" xmlns="http://www.w3.org/2000/svg">
<path d="M9.81421 6.59743C7.17347 9.33199 9.24565 11.5682 14.4394 11.6466L13.9445 12.5367C7.316 12.4662 4.51394 9.91025 7.67938 6.79175C9.9912 4.51008 15.2993 2.11714 20.0169 1.448L19.605 2.20177C15.7238 2.93359 11.7517 4.5947 9.81421 6.59743Z" fill="#E30000"/>
<path d="M7.00993 6.76835C3.60642 10.1203 6.58234 12.8831 13.7011 12.9615L12.9994 14.2151C12.7441 14.2151 12.495 14.2151 12.2397 14.2151C4.12329 14.2183 1.02207 10.6249 4.80305 6.7182C7.82596 3.58403 14.6706 0.973272 20.4564 0.645752L20.1306 1.24281C14.9228 1.88061 9.49404 4.319 7.00993 6.76835Z" fill="#E30000"/>
<path d="M1.90263 6.75413C5.51289 3.08245 13.6105 0.269538 20.8185 0L20.5632 0.432515C14.3342 0.745932 7.38773 3.3802 4.20819 6.66951C0.234548 10.7737 3.45011 14.6366 11.9847 14.6366C12.2541 14.6366 12.5032 14.6366 12.7679 14.6225L12.0223 15.9435C11.0575 16.0078 7.84978 16.1864 4.79241 15.2399C-0.260394 13.6728 -1.47269 10.1704 1.89793 6.75413" fill="#E30000"/>
<path d="M15.796 12.4991C15.3261 12.521 14.8155 12.5351 14.4678 12.543L14.9377 11.6544C15.2775 11.6544 15.76 11.6403 16.1296 11.6262L15.796 12.4991Z" fill="#E30000"/>
<path d="M14.596 15.7304C13.9993 15.7883 13.2616 15.851 12.7588 15.8949L13.4119 14.6083C13.8505 14.588 14.5083 14.5519 15.0424 14.5159L14.596 15.7304Z" fill="#E30000"/>
<path d="M15.1971 14.1335C14.7727 14.1617 14.2401 14.1899 13.6309 14.2119L14.2574 12.9754C14.7758 12.9754 15.2582 12.9472 15.6482 12.9253L15.1971 14.1335Z" fill="#E30000"/>
</svg>
