<svg width="20" height="20" viewBox="0 0 20 20" fill="none" xmlns="http://www.w3.org/2000/svg">
<path d="M3.33333 10.8333C3.79167 10.8333 4.16667 10.4583 4.16667 9.99992C4.16667 9.54159 3.79167 9.16659 3.33333 9.16659C2.875 9.16659 2.5 9.54159 2.5 9.99992C2.5 10.4583 2.875 10.8333 3.33333 10.8333ZM3.33333 14.1666C3.79167 14.1666 4.16667 13.7916 4.16667 13.3333C4.16667 12.8749 3.79167 12.4999 3.33333 12.4999C2.875 12.4999 2.5 12.8749 2.5 13.3333C2.5 13.7916 2.875 14.1666 3.33333 14.1666ZM3.33333 7.49992C3.79167 7.49992 4.16667 7.12492 4.16667 6.66659C4.16667 6.20825 3.79167 5.83325 3.33333 5.83325C2.875 5.83325 2.5 6.20825 2.5 6.66659C2.5 7.12492 2.875 7.49992 3.33333 7.49992ZM6.66667 10.8333H16.6667C17.125 10.8333 17.5 10.4583 17.5 9.99992C17.5 9.54159 17.125 9.16659 16.6667 9.16659H6.66667C6.20833 9.16659 5.83333 9.54159 5.83333 9.99992C5.83333 10.4583 6.20833 10.8333 6.66667 10.8333ZM6.66667 14.1666H16.6667C17.125 14.1666 17.5 13.7916 17.5 13.3333C17.5 12.8749 17.125 12.4999 16.6667 12.4999H6.66667C6.20833 12.4999 5.83333 12.8749 5.83333 13.3333C5.83333 13.7916 6.20833 14.1666 6.66667 14.1666ZM5.83333 6.66659C5.83333 7.12492 6.20833 7.49992 6.66667 7.49992H16.6667C17.125 7.49992 17.5 7.12492 17.5 6.66659C17.5 6.20825 17.125 5.83325 16.6667 5.83325H6.66667C6.20833 5.83325 5.83333 6.20825 5.83333 6.66659ZM3.33333 10.8333C3.79167 10.8333 4.16667 10.4583 4.16667 9.99992C4.16667 9.54159 3.79167 9.16659 3.33333 9.16659C2.875 9.16659 2.5 9.54159 2.5 9.99992C2.5 10.4583 2.875 10.8333 3.33333 10.8333ZM3.33333 14.1666C3.79167 14.1666 4.16667 13.7916 4.16667 13.3333C4.16667 12.8749 3.79167 12.4999 3.33333 12.4999C2.875 12.4999 2.5 12.8749 2.5 13.3333C2.5 13.7916 2.875 14.1666 3.33333 14.1666ZM3.33333 7.49992C3.79167 7.49992 4.16667 7.12492 4.16667 6.66659C4.16667 6.20825 3.79167 5.83325 3.33333 5.83325C2.875 5.83325 2.5 6.20825 2.5 6.66659C2.5 7.12492 2.875 7.49992 3.33333 7.49992ZM6.66667 10.8333H16.6667C17.125 10.8333 17.5 10.4583 17.5 9.99992C17.5 9.54159 17.125 9.16659 16.6667 9.16659H6.66667C6.20833 9.16659 5.83333 9.54159 5.83333 9.99992C5.83333 10.4583 6.20833 10.8333 6.66667 10.8333ZM6.66667 14.1666H16.6667C17.125 14.1666 17.5 13.7916 17.5 13.3333C17.5 12.8749 17.125 12.4999 16.6667 12.4999H6.66667C6.20833 12.4999 5.83333 12.8749 5.83333 13.3333C5.83333 13.7916 6.20833 14.1666 6.66667 14.1666ZM5.83333 6.66659C5.83333 7.12492 6.20833 7.49992 6.66667 7.49992H16.6667C17.125 7.49992 17.5 7.12492 17.5 6.66659C17.5 6.20825 17.125 5.83325 16.6667 5.83325H6.66667C6.20833 5.83325 5.83333 6.20825 5.83333 6.66659Z" fill="#999999"/>
</svg>
