<svg width="20" height="20" viewBox="0 0 20 20" fill="none" xmlns="http://www.w3.org/2000/svg">
<path d="M9.99967 4.91659C10.9663 4.91659 11.7497 5.69992 11.7497 6.66658C11.7497 7.63325 10.9663 8.41658 9.99967 8.41658C9.03301 8.41658 8.24967 7.63325 8.24967 6.66658C8.24967 5.69992 9.03301 4.91659 9.99967 4.91659ZM9.99967 12.4166C12.4747 12.4166 15.083 13.6333 15.083 14.1666V15.0833H4.91634V14.1666C4.91634 13.6333 7.52467 12.4166 9.99967 12.4166ZM9.99967 3.33325C8.15801 3.33325 6.66634 4.82492 6.66634 6.66658C6.66634 8.50825 8.15801 9.99992 9.99967 9.99992C11.8413 9.99992 13.333 8.50825 13.333 6.66658C13.333 4.82492 11.8413 3.33325 9.99967 3.33325ZM9.99967 10.8333C7.77467 10.8333 3.33301 11.9499 3.33301 14.1666V16.6666H16.6663V14.1666C16.6663 11.9499 12.2247 10.8333 9.99967 10.8333Z" fill="#999999"/>
</svg>
