<svg width="12" height="16" viewBox="0 0 12 16" fill="none" xmlns="http://www.w3.org/2000/svg">
<path fill-rule="evenodd" clip-rule="evenodd" d="M0 5.6C0 2.504 2.504 0 5.6 0C8.696 0 11.2 2.504 11.2 5.6C11.2 9.8 5.6 16 5.6 16C5.6 16 0 9.8 0 5.6ZM5.6 1.6C3.392 1.6 1.6 3.392 1.6 5.6C1.6 7.88 3.936 11.368 5.6 13.504C7.296 11.352 9.6 7.904 9.6 5.6C9.6 3.392 7.808 1.6 5.6 1.6ZM7.59998 5.60007C7.59998 6.70464 6.70455 7.60007 5.59998 7.60007C4.49541 7.60007 3.59998 6.70464 3.59998 5.60007C3.59998 4.4955 4.49541 3.60007 5.59998 3.60007C6.70455 3.60007 7.59998 4.4955 7.59998 5.60007Z" fill="#1A1A1A"/>
</svg>
