<svg width="24" height="24" viewBox="0 0 24 24" fill="none" xmlns="http://www.w3.org/2000/svg">
    <g id="Property 1=Icon | Feedback alert">
        <path id="Ellipse 44" d="M20.5 12C20.5 16.6944 16.6944 20.5 12 20.5C7.30558 20.5 3.5 16.6944 3.5 12C3.5 7.30558 7.30558 3.5 12 3.5C16.6944 3.5 20.5 7.30558 20.5 12Z" stroke="#E30000"/>
        <g id="Group 224">
            <circle id="Ellipse 47" cx="12" cy="16" r="1" fill="#E30000"/>
            <path id="Union" fill-rule="evenodd" clip-rule="evenodd" d="M11 8.00001C11 8.00001 11 8 11 8C11 7.44772 11.4477 7 12 7C12.5523 7 13 7.44772 13 8C13 8 13 8.00001 13 8.00001V12C13 12.5523 12.5523 13 12 13C11.4477 13 11 12.5523 11 12V8.00001Z" fill="#E30000"/>
        </g>
    </g>
</svg>
