<svg width="64" height="64" viewBox="0 0 64 64" fill="none" xmlns="http://www.w3.org/2000/svg">
<path d="M64 32C64 49.6731 49.6731 64 32 64C14.3269 64 0 49.6731 0 32C0 14.3269 14.3269 0 32 0C49.6731 0 64 14.3269 64 32Z" fill="#F7F7F7"/>
<path d="M32 19.8C34.32 19.8 36.2 21.68 36.2 24C36.2 26.32 34.32 28.2 32 28.2C29.68 28.2 27.8 26.32 27.8 24C27.8 21.68 29.68 19.8 32 19.8ZM32 37.8C37.94 37.8 44.2 40.72 44.2 42V44.2H19.8V42C19.8 40.72 26.06 37.8 32 37.8ZM32 16C27.58 16 24 19.58 24 24C24 28.42 27.58 32 32 32C36.42 32 40 28.42 40 24C40 19.58 36.42 16 32 16ZM32 34C26.66 34 16 36.68 16 42V48H48V42C48 36.68 37.34 34 32 34Z" fill="#D6D6D6"/>
</svg>
